<?xml version="1.0" standalone="no"?><!DOCTYPE svg PUBLIC "-//W3C//DTD SVG 1.1//EN" "http://www.w3.org/Graphics/SVG/1.1/DTD/svg11.dtd"><svg t="1646985547153" class="icon" viewBox="0 0 1024 1024" version="1.1" xmlns="http://www.w3.org/2000/svg" p-id="15665" xmlns:xlink="http://www.w3.org/1999/xlink" width="32" height="32"><defs><style type="text/css"></style></defs><path d="M224 160c-19.2 0-32 12.8-32 32v160c0 19.2 12.8 32 32 32h160c19.2 0 32-12.8 32-32V192c0-19.2-12.8-32-32-32H224z m0-64h160c54.4 0 96 41.6 96 96v160c0 54.4-41.6 96-96 96H224c-54.4 0-96-41.6-96-96V192c0-54.4 41.6-96 96-96z m0 480c-19.2 0-32 12.8-32 32v160c0 19.2 12.8 32 32 32h160c19.2 0 32-12.8 32-32v-160c0-19.2-12.8-32-32-32H224z m0-64h160c54.4 0 96 41.6 96 96v160c0 54.4-41.6 96-96 96H224c-54.4 0-96-41.6-96-96v-160c0-54.4 41.6-96 96-96zM640 160c-19.2 0-32 12.8-32 32v160c0 19.2 12.8 32 32 32h160c19.2 0 32-12.8 32-32V192c0-19.2-12.8-32-32-32h-160z m0-64h160c54.4 0 96 41.6 96 96v160c0 54.4-41.6 96-96 96h-160c-54.4 0-96-41.6-96-96V192c0-54.4 41.6-96 96-96z m0 480c-19.2 0-32 12.8-32 32v160c0 19.2 12.8 32 32 32h160c19.2 0 32-12.8 32-32v-160c0-19.2-12.8-32-32-32h-160z m0-64h160c54.4 0 96 41.6 96 96v160c0 54.4-41.6 96-96 96h-160c-54.4 0-96-41.6-96-96v-160c0-54.4 41.6-96 96-96z" p-id="15666"></path></svg>