<?xml version="1.0" standalone="no"?><!DOCTYPE svg PUBLIC "-//W3C//DTD SVG 1.1//EN" "http://www.w3.org/Graphics/SVG/1.1/DTD/svg11.dtd"><svg t="1646985652050" class="icon" viewBox="0 0 1024 1024" version="1.1" xmlns="http://www.w3.org/2000/svg" p-id="15965" xmlns:xlink="http://www.w3.org/1999/xlink" width="32" height="32"><defs><style type="text/css"></style></defs><path d="M81.28 222.016h861.44c27.264 0 49.28-21.504 49.28-48s-22.016-48-49.28-48H81.28c-27.2 0-49.28 21.504-49.28 48s22.08 48 49.28 48zM942.72 462.016H81.28c-27.264 0-49.28 21.504-49.28 48s22.016 48 49.28 48h861.44c27.264 0 49.28-21.504 49.28-48s-22.144-48-49.28-48zM942.72 801.984H81.28c-27.2 0-49.28 21.504-49.28 48s22.08 48 49.28 48h861.44c27.264 0 49.28-21.504 49.28-48s-22.016-48-49.28-48z" p-id="15966"></path></svg>