<?xml version="1.0" standalone="no"?><!DOCTYPE svg PUBLIC "-//W3C//DTD SVG 1.1//EN" "http://www.w3.org/Graphics/SVG/1.1/DTD/svg11.dtd"><svg t="1646983957381" class="icon" viewBox="0 0 1024 1024" version="1.1" xmlns="http://www.w3.org/2000/svg" p-id="13350" xmlns:xlink="http://www.w3.org/1999/xlink" width="32" height="32"><defs><style type="text/css"></style></defs><path d="M960 192H848c-8.8 0-16-7.2-16-16V64c0-35.4-28.7-64-64-64H64C28.7 0 0 28.6 0 64v704c0 35.3 28.7 64 64 64h112c8.8 0 16 7.2 16 16v112c0 35.3 28.7 64 64 64h704c35.3 0 64-28.7 64-64V256c0-35.4-28.7-64-64-64z m-768 64v496c0 8.8-7.2 16-16 16H80c-8.8 0-16-7.2-16-16V80c0-8.8 7.2-16 16-16h672c8.8 0 16 7.2 16 16v96c0 8.8-7.2 16-16 16H256c-35.3 0-64 28.6-64 64z" p-id="13351"></path></svg>