<?xml version="1.0" standalone="no"?><!DOCTYPE svg PUBLIC "-//W3C//DTD SVG 1.1//EN" "http://www.w3.org/Graphics/SVG/1.1/DTD/svg11.dtd"><svg t="1640588897889" class="icon" viewBox="0 0 1027 1024" version="1.1" xmlns="http://www.w3.org/2000/svg" p-id="8239" width="32.09375" height="32" xmlns:xlink="http://www.w3.org/1999/xlink"><defs><style type="text/css"></style></defs><path d="M985.6 313.6c-25.6-60.8-64-115.2-108.8-163.2-48-48-102.4-83.2-163.2-108.8C649.6 16 582.4 0 515.2 0s-137.6 12.8-198.4 41.6c-60.8 25.6-115.2 64-163.2 108.8S67.2 252.8 41.6 313.6c-25.6 64-41.6 131.2-41.6 198.4s12.8 137.6 41.6 198.4c25.6 60.8 64 115.2 108.8 163.2 48 48 102.4 83.2 163.2 108.8 64 25.6 131.2 41.6 198.4 41.6s137.6-12.8 198.4-41.6c60.8-25.6 115.2-64 163.2-108.8 48-48 83.2-102.4 108.8-163.2 25.6-64 41.6-131.2 41.6-198.4s-12.8-137.6-38.4-198.4zM560 924.8v-153.6h-96v153.6C275.2 905.6 121.6 752 99.2 560h153.6v-96H99.2C121.6 272 275.2 118.4 467.2 96v153.6h96V96c192 22.4 345.6 172.8 368 364.8h-153.6v96H931.2c-25.6 195.2-179.2 348.8-371.2 368zM377.6 512c0 73.6 60.8 134.4 134.4 134.4s134.4-60.8 134.4-134.4-60.8-134.4-134.4-134.4-134.4 60.8-134.4 134.4z" fill="#e6e6e6" p-id="8240"></path></svg>